<svg width="30" height="38" viewBox="0 0 30 38" fill="none" xmlns="http://www.w3.org/2000/svg">
<path d="M16.4824 12.3845C14.8412 12.3845 13.5 11.0545 13.5 9.44818C13.5 8.67399 13.8142 7.93151 14.3735 7.38407C14.9328 6.83664 15.6914 6.52909 16.4824 6.52909C18.1412 6.52909 19.4824 7.84182 19.4824 9.44818C19.4824 11.0545 18.1412 12.3845 16.4824 12.3845ZM11.1176 32.6973L0.652941 30.6591L1.25294 27.7227L8.57647 29.1909L10.9588 17.3418L8.27647 18.3782V23.3182H5.29412V16.4782L13.0588 13.2482L14.2412 13.11C15.3 13.11 16.1824 13.6973 16.7647 14.5782L18.2824 16.91C19.4824 19 21.8647 20.4164 24.7059 20.4164V23.3182C21.4235 23.3182 18.4235 21.8845 16.4824 19.6909L15.6 24.0782L18.7235 26.9973V38H15.7412V29.1909L12.6 26.2718L11.1176 32.6973ZM30 38H26.4706V3.45455H3.52941V26.0991L0 25.3736V0H30V38ZM3.52941 38H0V32.4382L3.52941 33.1636V38Z" fill="white"/>
</svg>
